<?xml version="1.0" encoding="UTF-8" standalone="no"?>
<!DOCTYPE svg PUBLIC "-//W3C//DTD SVG 1.1//EN"
 "http://www.w3.org/Graphics/SVG/1.1/DTD/svg11.dtd">
<!-- Generated by graphviz version 12.2.1 (20241206.2353)
 -->
<!-- Title: G Pages: 1 -->
<svg width="579pt" height="672pt"
 viewBox="0.00 0.00 578.76 671.58" xmlns="http://www.w3.org/2000/svg" xmlns:xlink="http://www.w3.org/1999/xlink">
<g id="graph0" class="graph" transform="scale(1 1) rotate(0) translate(4 667.58)">
<title>G</title><style>.edge>path:hover{stroke-width:8}</style>
<polygon fill="white" stroke="none" points="-4,4 -4,-667.58 574.76,-667.58 574.76,4 -4,4"/>
<!-- charset_normalizer -->
<g id="node1" class="node">
<title>charset_normalizer</title><style>.edge>path:hover{stroke-width:8}</style>
<ellipse fill="#b65353" stroke="black" cx="185.75" cy="-93.57" rx="58.28" ry="18"/>
<text text-anchor="middle" x="185.75" y="-89.69" font-family="Helvetica,sans-Serif" font-size="10.00" fill="#ffffff">charset_normalizer</text>
</g>
<!-- requests -->
<g id="node3" class="node">
<title>requests</title><style>.edge>path:hover{stroke-width:8}</style>
<polygon fill="blue" stroke="black" points="361.75,-36 307.75,-36 307.75,0 361.75,0 361.75,-36"/>
<text text-anchor="middle" x="334.75" y="-14.12" font-family="Helvetica,sans-Serif" font-size="10.00" fill="white">requests</text>
</g>
<!-- charset_normalizer&#45;&gt;requests -->
<g id="edge1" class="edge">
<title>charset_normalizer&#45;&gt;requests</title><style>.edge>path:hover{stroke-width:8}</style>
<path fill="none" stroke="black" d="M215.54,-77.86C239.03,-66.26 271.91,-50.03 297.2,-37.54"/>
<polygon fill="#b65353" stroke="black" points="298.74,-40.68 306.16,-33.12 295.64,-34.41 298.74,-40.68"/>
</g>
<!-- cryptography -->
<g id="node2" class="node">
<title>cryptography</title><style>.edge>path:hover{stroke-width:8}</style>
<ellipse fill="#80cc33" stroke="black" cx="42.75" cy="-494.44" rx="42.75" ry="18"/>
<text text-anchor="middle" x="42.75" y="-490.57" font-family="Helvetica,sans-Serif" font-size="10.00" fill="#000000">cryptography</text>
</g>
<!-- cryptography&#45;&gt;requests -->
<g id="edge2" class="edge">
<title>cryptography&#45;&gt;requests</title><style>.edge>path:hover{stroke-width:8}</style>
<path fill="none" stroke="black" d="M113.75,-338.74C123.76,-287.64 99.82,-263.47 132.75,-223.13 174.56,-171.92 258.45,-234.9 271.75,-170.13"/>
<path fill="none" stroke="black" d="M271.75,-168.13C280.08,-125.38 272.04,-111.33 290.75,-72 295.43,-62.17 302.35,-52.62 309.32,-44.41"/>
<polygon fill="#80cc33" stroke="black" points="311.72,-46.97 315.79,-37.19 306.51,-42.3 311.72,-46.97"/>
<path fill="none" stroke="black" d="M53.41,-476.91C70.2,-449.78 102.08,-393.56 113.75,-340.74"/>
</g>
<!-- urllib3_contrib_pyopenssl -->
<g id="node14" class="node">
<title>urllib3_contrib_pyopenssl</title><style>.edge>path:hover{stroke-width:8}</style>
<ellipse fill="#7a49ac" stroke="black" cx="184.75" cy="-252.66" rx="42.6" ry="29.52"/>
<text text-anchor="middle" x="184.75" y="-260.03" font-family="Helvetica,sans-Serif" font-size="10.00" fill="#ffffff">urllib3.</text>
<text text-anchor="middle" x="184.75" y="-248.78" font-family="Helvetica,sans-Serif" font-size="10.00" fill="#ffffff">contrib.</text>
<text text-anchor="middle" x="184.75" y="-237.53" font-family="Helvetica,sans-Serif" font-size="10.00" fill="#ffffff">pyopenssl</text>
</g>
<!-- cryptography&#45;&gt;urllib3_contrib_pyopenssl -->
<g id="edge3" class="edge">
<title>cryptography&#45;&gt;urllib3_contrib_pyopenssl</title><style>.edge>path:hover{stroke-width:8}</style>
<path fill="none" stroke="black" d="M113.75,-338.74C118.03,-316.92 132.92,-297.46 147.97,-282.67"/>
<polygon fill="#80cc33" stroke="black" points="150.22,-285.35 155.17,-275.98 145.46,-280.22 150.22,-285.35"/>
</g>
<!-- requests___version__ -->
<g id="node4" class="node">
<title>requests___version__</title><style>.edge>path:hover{stroke-width:8}</style>
<ellipse fill="#47c2c2" stroke="black" cx="227.75" cy="-418.88" rx="48.44" ry="21.57"/>
<text text-anchor="middle" x="227.75" y="-420.63" font-family="Helvetica,sans-Serif" font-size="10.00" fill="#000000">requests.</text>
<text text-anchor="middle" x="227.75" y="-409.38" font-family="Helvetica,sans-Serif" font-size="10.00" fill="#000000">__version__</text>
</g>
<!-- requests___version__&#45;&gt;requests -->
<g id="edge4" class="edge">
<title>requests___version__&#45;&gt;requests</title><style>.edge>path:hover{stroke-width:8}</style>
<path fill="none" stroke="black" d="M223.69,-397.12C221.51,-381.13 220.56,-358.78 227.75,-340.74"/>
</g>
<!-- requests_utils -->
<g id="node11" class="node">
<title>requests_utils</title><style>.edge>path:hover{stroke-width:8}</style>
<polygon fill="blue" stroke="black" points="330,-357.74 255.5,-357.74 255.5,-321.74 330,-321.74 330,-357.74"/>
<text text-anchor="middle" x="292.75" y="-335.87" font-family="Helvetica,sans-Serif" font-size="10.00" fill="white">requests.utils</text>
</g>
<!-- requests___version__&#45;&gt;requests_utils -->
<g id="edge5" class="edge">
<title>requests___version__&#45;&gt;requests_utils</title><style>.edge>path:hover{stroke-width:8}</style>
<path fill="none" stroke="black" d="M244.15,-398.41C252.24,-388.82 262.1,-377.11 270.83,-366.76"/>
<polygon fill="#47c2c2" stroke="black" points="273.38,-369.16 277.15,-359.25 268.03,-364.64 273.38,-369.16"/>
</g>
<!-- requests_api -->
<g id="node5" class="node">
<title>requests_api</title><style>.edge>path:hover{stroke-width:8}</style>
<polygon fill="blue" stroke="black" points="369.38,-111.57 300.13,-111.57 300.13,-75.57 369.38,-75.57 369.38,-111.57"/>
<text text-anchor="middle" x="334.75" y="-89.69" font-family="Helvetica,sans-Serif" font-size="10.00" fill="white">requests.api</text>
</g>
<!-- requests_api&#45;&gt;requests -->
<g id="edge6" class="edge">
<title>requests_api&#45;&gt;requests</title><style>.edge>path:hover{stroke-width:8}</style>
<path fill="none" stroke="black" d="M334.75,-75.13C334.75,-66.89 334.75,-56.83 334.75,-47.51"/>
<polygon fill="blue" stroke="black" points="338.25,-47.82 334.75,-37.82 331.25,-47.82 338.25,-47.82"/>
</g>
<!-- requests_exceptions -->
<g id="node6" class="node">
<title>requests_exceptions</title><style>.edge>path:hover{stroke-width:8}</style>
<ellipse fill="#24d0d0" stroke="black" cx="376.75" cy="-418.88" rx="44.72" ry="21.57"/>
<text text-anchor="middle" x="376.75" y="-420.63" font-family="Helvetica,sans-Serif" font-size="10.00" fill="#000000">requests.</text>
<text text-anchor="middle" x="376.75" y="-409.38" font-family="Helvetica,sans-Serif" font-size="10.00" fill="#000000">exceptions</text>
</g>
<!-- requests_exceptions&#45;&gt;requests -->
<g id="edge7" class="edge">
<title>requests_exceptions&#45;&gt;requests</title><style>.edge>path:hover{stroke-width:8}</style>
<path fill="none" stroke="black" d="M357.75,-338.74C353.55,-299.42 344.09,-291.22 331.75,-253.66"/>
<path fill="none" stroke="black" d="M370.04,-397.2C365.45,-381.82 359.83,-360.22 357.75,-340.74"/>
<path fill="none" stroke="black" d="M331.75,-251.66C317.71,-208.92 262.7,-214.2 271.75,-170.13"/>
</g>
<!-- requests_models -->
<g id="node7" class="node">
<title>requests_models</title><style>.edge>path:hover{stroke-width:8}</style>
<polygon fill="blue" stroke="black" points="416,-270.66 359.5,-270.66 359.5,-234.66 416,-234.66 416,-270.66"/>
<text text-anchor="middle" x="387.75" y="-254.41" font-family="Helvetica,sans-Serif" font-size="10.00" fill="white">requests.</text>
<text text-anchor="middle" x="387.75" y="-243.16" font-family="Helvetica,sans-Serif" font-size="10.00" fill="white">models</text>
</g>
<!-- requests_exceptions&#45;&gt;requests_models -->
<g id="edge8" class="edge">
<title>requests_exceptions&#45;&gt;requests_models</title><style>.edge>path:hover{stroke-width:8}</style>
<path fill="none" stroke="black" d="M357.75,-338.74C355.61,-318.68 363.21,-297.27 371.3,-280.95"/>
<polygon fill="#24d0d0" stroke="black" points="374.27,-282.83 375.88,-272.35 368.09,-279.54 374.27,-282.83"/>
</g>
<!-- requests_sessions -->
<g id="node9" class="node">
<title>requests_sessions</title><style>.edge>path:hover{stroke-width:8}</style>
<polygon fill="blue" stroke="black" points="360,-187.13 303.5,-187.13 303.5,-151.13 360,-151.13 360,-187.13"/>
<text text-anchor="middle" x="331.75" y="-170.88" font-family="Helvetica,sans-Serif" font-size="10.00" fill="white">requests.</text>
<text text-anchor="middle" x="331.75" y="-159.63" font-family="Helvetica,sans-Serif" font-size="10.00" fill="white">sessions</text>
</g>
<!-- requests_exceptions&#45;&gt;requests_sessions -->
<g id="edge9" class="edge">
<title>requests_exceptions&#45;&gt;requests_sessions</title><style>.edge>path:hover{stroke-width:8}</style>
<path fill="none" stroke="black" d="M331.75,-251.66C326.19,-234.73 326.1,-214.73 327.44,-198.78"/>
<polygon fill="#24d0d0" stroke="black" points="330.9,-199.31 328.52,-188.99 323.94,-198.55 330.9,-199.31"/>
</g>
<!-- requests_exceptions&#45;&gt;requests_utils -->
<g id="edge10" class="edge">
<title>requests_exceptions&#45;&gt;requests_utils</title><style>.edge>path:hover{stroke-width:8}</style>
<path fill="none" stroke="black" d="M356.42,-399.21C345.48,-389.16 331.84,-376.63 319.99,-365.76"/>
<polygon fill="#24d0d0" stroke="black" points="322.59,-363.4 312.86,-359.21 317.86,-368.55 322.59,-363.4"/>
</g>
<!-- requests_models&#45;&gt;requests -->
<g id="edge11" class="edge">
<title>requests_models&#45;&gt;requests</title><style>.edge>path:hover{stroke-width:8}</style>
<path fill="none" stroke="black" d="M460.75,-168.13C463.02,-135.52 466.02,-126.83 460.75,-94.57"/>
<path fill="none" stroke="black" d="M416.35,-234.17C435.99,-219.81 458.85,-197.43 460.75,-170.13"/>
</g>
<!-- requests_models&#45;&gt;requests_sessions -->
<g id="edge12" class="edge">
<title>requests_models&#45;&gt;requests_sessions</title><style>.edge>path:hover{stroke-width:8}</style>
<path fill="none" stroke="black" d="M375.87,-234.37C368.38,-223.45 358.54,-209.13 350.05,-196.78"/>
<polygon fill="blue" stroke="black" points="353.01,-194.91 344.47,-188.64 347.24,-198.87 353.01,-194.91"/>
</g>
<!-- requests_packages -->
<g id="node8" class="node">
<title>requests_packages</title><style>.edge>path:hover{stroke-width:8}</style>
<ellipse fill="#53b6b6" stroke="black" cx="529.75" cy="-93.57" rx="41.01" ry="21.57"/>
<text text-anchor="middle" x="529.75" y="-95.32" font-family="Helvetica,sans-Serif" font-size="10.00" fill="#000000">requests.</text>
<text text-anchor="middle" x="529.75" y="-84.07" font-family="Helvetica,sans-Serif" font-size="10.00" fill="#000000">packages</text>
</g>
<!-- requests_packages&#45;&gt;requests -->
<g id="edge13" class="edge">
<title>requests_packages&#45;&gt;requests</title><style>.edge>path:hover{stroke-width:8}</style>
<path fill="none" stroke="black" d="M497.11,-80.25C462.82,-67.32 408.94,-46.99 372.75,-33.34"/>
<polygon fill="#53b6b6" stroke="black" points="374.14,-30.12 363.55,-29.87 371.67,-36.67 374.14,-30.12"/>
</g>
<!-- requests_sessions&#45;&gt;requests -->
<g id="edge14" class="edge">
<title>requests_sessions&#45;&gt;requests</title><style>.edge>path:hover{stroke-width:8}</style>
<path fill="none" stroke="black" d="M460.75,-92.57C454.31,-53.15 408,-34.38 373.38,-25.78"/>
<polygon fill="blue" stroke="black" points="374.17,-22.37 363.64,-23.57 372.62,-29.19 374.17,-22.37"/>
<path fill="none" stroke="black" d="M360.42,-164.75C400.67,-158.33 468.28,-140.62 460.75,-94.57"/>
</g>
<!-- requests_sessions&#45;&gt;requests_api -->
<g id="edge15" class="edge">
<title>requests_sessions&#45;&gt;requests_api</title><style>.edge>path:hover{stroke-width:8}</style>
<path fill="none" stroke="black" d="M332.46,-150.7C332.8,-142.45 333.21,-132.39 333.59,-123.08"/>
<polygon fill="blue" stroke="black" points="337.07,-123.52 333.98,-113.39 330.08,-123.24 337.07,-123.52"/>
</g>
<!-- requests_status_codes -->
<g id="node10" class="node">
<title>requests_status_codes</title><style>.edge>path:hover{stroke-width:8}</style>
<ellipse fill="#3bcece" stroke="black" cx="476.75" cy="-339.74" rx="52.68" ry="21.57"/>
<text text-anchor="middle" x="476.75" y="-341.49" font-family="Helvetica,sans-Serif" font-size="10.00" fill="#000000">requests.</text>
<text text-anchor="middle" x="476.75" y="-330.24" font-family="Helvetica,sans-Serif" font-size="10.00" fill="#000000">status_codes</text>
</g>
<!-- requests_status_codes&#45;&gt;requests -->
<g id="edge16" class="edge">
<title>requests_status_codes&#45;&gt;requests</title><style>.edge>path:hover{stroke-width:8}</style>
<path fill="none" stroke="black" d="M460.75,-251.66C445.99,-218.57 458.24,-206.28 460.75,-170.13"/>
</g>
<!-- requests_status_codes&#45;&gt;requests_models -->
<g id="edge17" class="edge">
<title>requests_status_codes&#45;&gt;requests_models</title><style>.edge>path:hover{stroke-width:8}</style>
<path fill="none" stroke="black" d="M456.55,-319.44C443.98,-307.42 427.68,-291.83 414.1,-278.84"/>
<polygon fill="#3bcece" stroke="black" points="416.79,-276.58 407.14,-272.2 411.95,-281.64 416.79,-276.58"/>
</g>
<!-- requests_status_codes&#45;&gt;requests_sessions -->
<g id="edge18" class="edge">
<title>requests_status_codes&#45;&gt;requests_sessions</title><style>.edge>path:hover{stroke-width:8}</style>
<path fill="none" stroke="black" d="M475.55,-318C473.9,-300.26 470,-274.38 460.75,-253.66"/>
<path fill="none" stroke="black" d="M460.75,-251.66C444.48,-215.19 402.65,-193.4 371,-181.65"/>
<polygon fill="#3bcece" stroke="black" points="372.31,-178.4 361.71,-178.41 370,-185.01 372.31,-178.4"/>
</g>
<!-- requests_utils&#45;&gt;requests -->
<g id="edge19" class="edge">
<title>requests_utils&#45;&gt;requests</title><style>.edge>path:hover{stroke-width:8}</style>
<path fill="none" stroke="black" d="M293.75,-251.66C295.76,-214.18 264.2,-206.89 271.75,-170.13"/>
<path fill="none" stroke="black" d="M292.53,-321.46C292.41,-304.25 292.49,-277.11 293.75,-253.66"/>
</g>
<!-- requests_utils&#45;&gt;requests_models -->
<g id="edge20" class="edge">
<title>requests_utils&#45;&gt;requests_models</title><style>.edge>path:hover{stroke-width:8}</style>
<path fill="none" stroke="black" d="M311.97,-321.52C325.79,-309.15 344.62,-292.28 360.06,-278.46"/>
<polygon fill="blue" stroke="black" points="361.99,-281.43 367.1,-272.15 357.32,-276.22 361.99,-281.43"/>
</g>
<!-- requests_utils&#45;&gt;requests_sessions -->
<g id="edge21" class="edge">
<title>requests_utils&#45;&gt;requests_sessions</title><style>.edge>path:hover{stroke-width:8}</style>
<path fill="none" stroke="black" d="M293.75,-251.66C294.79,-232.27 303.78,-212.49 312.75,-197.27"/>
<polygon fill="blue" stroke="black" points="315.71,-199.13 318.06,-188.8 309.78,-195.41 315.71,-199.13"/>
</g>
<!-- urllib3 -->
<g id="node12" class="node">
<title>urllib3</title><style>.edge>path:hover{stroke-width:8}</style>
<ellipse fill="#750bdf" stroke="black" cx="168.75" cy="-566.44" rx="27" ry="18"/>
<text text-anchor="middle" x="168.75" y="-562.57" font-family="Helvetica,sans-Serif" font-size="10.00" fill="#ffffff">urllib3</text>
</g>
<!-- urllib3&#45;&gt;requests -->
<g id="edge22" class="edge">
<title>urllib3&#45;&gt;requests</title><style>.edge>path:hover{stroke-width:8}</style>
<path fill="none" stroke="black" d="M158.8,-549.21C151.2,-534.58 143.35,-512.77 151.75,-495.44"/>
<path fill="none" stroke="black" d="M151.75,-493.44C166.02,-464.03 135.91,-448.48 151.75,-419.88"/>
</g>
<!-- urllib3&#45;&gt;requests_exceptions -->
<g id="edge23" class="edge">
<title>urllib3&#45;&gt;requests_exceptions</title><style>.edge>path:hover{stroke-width:8}</style>
<path fill="none" stroke="black" d="M151.75,-493.44C186.06,-424.01 244.29,-464.97 317.75,-440.44 321.91,-439.05 326.24,-437.59 330.56,-436.11"/>
<polygon fill="#750bdf" stroke="black" points="331.49,-439.49 339.8,-432.92 329.21,-432.87 331.49,-439.49"/>
</g>
<!-- urllib3&#45;&gt;requests_models -->
<g id="edge24" class="edge">
<title>urllib3&#45;&gt;requests_models</title><style>.edge>path:hover{stroke-width:8}</style>
<path fill="none" stroke="black" d="M395.75,-338.74C386.12,-321.72 384.28,-299.68 384.77,-282.29"/>
<polygon fill="#750bdf" stroke="black" points="388.26,-282.55 385.35,-272.36 381.27,-282.14 388.26,-282.55"/>
<path fill="none" stroke="black" d="M151.75,-493.44C207.28,-380.1 350.26,-537.67 430.75,-440.44 460.7,-404.27 418.88,-381.61 395.75,-340.74"/>
</g>
<!-- urllib3&#45;&gt;requests_utils -->
<g id="edge25" class="edge">
<title>urllib3&#45;&gt;requests_utils</title><style>.edge>path:hover{stroke-width:8}</style>
<path fill="none" stroke="black" d="M151.75,-493.44C179.94,-436.4 246.96,-491.64 284.75,-440.44 299.65,-420.26 300.28,-391.11 298,-369.54"/>
<polygon fill="#750bdf" stroke="black" points="301.47,-369.08 296.66,-359.64 294.53,-370.02 301.47,-369.08"/>
</g>
<!-- urllib3_contrib -->
<g id="node13" class="node">
<title>urllib3_contrib</title><style>.edge>path:hover{stroke-width:8}</style>
<ellipse fill="#8547c2" stroke="black" cx="140.75" cy="-642.01" rx="32" ry="21.57"/>
<text text-anchor="middle" x="140.75" y="-643.76" font-family="Helvetica,sans-Serif" font-size="10.00" fill="#ffffff">urllib3.</text>
<text text-anchor="middle" x="140.75" y="-632.51" font-family="Helvetica,sans-Serif" font-size="10.00" fill="#ffffff">contrib</text>
</g>
<!-- urllib3_contrib&#45;&gt;requests -->
<g id="edge26" class="edge">
<title>urllib3_contrib&#45;&gt;requests</title><style>.edge>path:hover{stroke-width:8}</style>
<path fill="none" stroke="black" d="M151.75,-417.88C175.07,-375.78 209.93,-385.45 227.75,-340.74"/>
<path fill="none" stroke="black" d="M136.08,-620.18C128,-578.95 115.53,-485.28 151.75,-419.88"/>
<path fill="none" stroke="black" d="M227.75,-338.74C256.43,-266.8 250.73,-244.67 271.75,-170.13"/>
</g>
<!-- urllib3_contrib&#45;&gt;urllib3 -->
<g id="edge27" class="edge">
<title>urllib3_contrib&#45;&gt;urllib3</title><style>.edge>path:hover{stroke-width:8}</style>
<path fill="none" stroke="black" d="M148.4,-620.91C151.5,-612.77 155.12,-603.25 158.44,-594.52"/>
<polygon fill="#8547c2" stroke="black" points="161.61,-596.05 161.89,-585.46 155.06,-593.56 161.61,-596.05"/>
</g>
<!-- urllib3_contrib_pyopenssl&#45;&gt;requests -->
<g id="edge28" class="edge">
<title>urllib3_contrib_pyopenssl&#45;&gt;requests</title><style>.edge>path:hover{stroke-width:8}</style>
<path fill="none" stroke="black" d="M218.56,-234.09C240.45,-220.24 265.92,-198.52 271.75,-170.13"/>
</g>
<!-- urllib3_exceptions -->
<g id="node15" class="node">
<title>urllib3_exceptions</title><style>.edge>path:hover{stroke-width:8}</style>
<ellipse fill="#852fdb" stroke="black" cx="396.75" cy="-642.01" rx="44.72" ry="21.57"/>
<text text-anchor="middle" x="396.75" y="-643.76" font-family="Helvetica,sans-Serif" font-size="10.00" fill="#ffffff">urllib3.</text>
<text text-anchor="middle" x="396.75" y="-632.51" font-family="Helvetica,sans-Serif" font-size="10.00" fill="#ffffff">exceptions</text>
</g>
<!-- urllib3_exceptions&#45;&gt;requests -->
<g id="edge29" class="edge">
<title>urllib3_exceptions&#45;&gt;requests</title><style>.edge>path:hover{stroke-width:8}</style>
<path fill="none" stroke="black" d="M557.75,-417.88C540.25,-376.3 553.65,-360.75 538.75,-318.18 526.47,-283.08 458.17,-207.23 460.75,-170.13"/>
</g>
<!-- urllib3_exceptions&#45;&gt;requests_exceptions -->
<g id="edge30" class="edge">
<title>urllib3_exceptions&#45;&gt;requests_exceptions</title><style>.edge>path:hover{stroke-width:8}</style>
<path fill="none" stroke="black" d="M432.49,-628.72C488.47,-607.27 587.53,-559.1 557.75,-495.44"/>
<path fill="none" stroke="black" d="M557.75,-493.44C542.64,-443.51 480.34,-427.02 433.02,-421.81"/>
<polygon fill="#852fdb" stroke="black" points="433.44,-418.34 423.16,-420.89 432.79,-425.31 433.44,-418.34"/>
</g>
<!-- urllib3_exceptions&#45;&gt;requests_models -->
<g id="edge31" class="edge">
<title>urllib3_exceptions&#45;&gt;requests_models</title><style>.edge>path:hover{stroke-width:8}</style>
<path fill="none" stroke="black" d="M557.75,-417.88C526.8,-344.38 433.92,-410.76 395.75,-340.74"/>
<path fill="none" stroke="black" d="M557.75,-493.44C548.28,-462.15 570.44,-450.01 557.75,-419.88"/>
</g>
<!-- urllib3_exceptions&#45;&gt;urllib3 -->
<g id="edge32" class="edge">
<title>urllib3_exceptions&#45;&gt;urllib3</title><style>.edge>path:hover{stroke-width:8}</style>
<path fill="none" stroke="black" d="M360.12,-629.19C316.99,-615.28 245.9,-592.34 203.57,-578.68"/>
<polygon fill="#852fdb" stroke="black" points="204.73,-575.38 194.14,-575.64 202.58,-582.04 204.73,-575.38"/>
</g>
</g>
</svg>
